<?xml version="1.0" standalone="no"?>
<!DOCTYPE svg PUBLIC "-//W3C//DTD SVG 20010904//EN"
 "http://www.w3.org/TR/2001/REC-SVG-20010904/DTD/svg10.dtd">
<svg version="1.0" xmlns="http://www.w3.org/2000/svg"
 width="500.000000pt" height="500.000000pt" viewBox="0 0 500.000000 500.000000"
 preserveAspectRatio="xMidYMid meet">

<g transform="translate(0.000000,500.000000) scale(0.100000,-0.100000)"
fill="#000000" stroke="none">
<path d="M2047 2742 c-43 -47 -86 -203 -87 -315 0 -43 -3 -49 -32 -67 -80 -49
-136 7 -93 90 20 40 45 39 45 0 0 -35 23 -41 40 -11 23 44 -1 81 -53 81 -60 0
-107 -57 -107 -129 0 -21 -7 -34 -21 -42 -31 -16 -37 1 -26 71 5 32 7 66 4 74
-3 8 -25 18 -51 21 -55 9 -87 -8 -118 -61 -28 -47 -50 -45 -47 4 3 57 1 62
-29 62 -30 0 -67 -33 -96 -85 l-17 -30 5 31 c3 18 8 43 12 58 5 23 3 26 -20
26 -35 0 -48 -33 -50 -132 -2 -120 38 -136 74 -29 9 29 27 63 39 74 l21 21 0
-29 c0 -42 13 -57 51 -60 24 -2 35 -8 38 -21 9 -52 72 -72 106 -34 l18 20 22
-20 c26 -24 43 -25 73 -4 21 14 26 14 56 0 43 -20 79 -20 122 0 33 16 36 16
48 -1 20 -28 42 -12 60 42 23 70 52 113 76 113 34 0 23 -37 -17 -59 -52 -27
-9 -111 57 -111 36 0 92 39 104 73 15 40 1 43 -39 8 -37 -33 -44 -35 -69 -25
-20 8 -21 33 -1 41 19 7 45 55 45 82 0 28 -27 51 -59 51 -30 0 -83 -48 -100
-90 l-10 -25 0 28 c-1 19 12 44 38 75 74 90 106 194 72 236 -18 21 -64 21 -84
-2z m53 -64 c0 -29 -40 -123 -62 -143 -17 -16 0 93 22 143 21 48 40 48 40 0z
m-441 -240 c-15 -68 -30 -98 -50 -98 -26 0 -32 33 -14 77 16 39 39 63 61 63 9
0 10 -11 3 -42z"/>
<path d="M4005 2704 c-26 -28 -65 -121 -65 -154 0 -15 -7 -20 -24 -20 -14 0
-27 -4 -30 -9 -3 -4 -16 -6 -30 -4 -35 7 -63 -12 -98 -65 -25 -39 -29 -42 -24
-18 20 86 20 86 -7 86 -28 0 -47 -38 -47 -96 0 -42 -42 -95 -61 -77 -10 10
-10 26 0 79 7 37 8 71 4 75 -5 5 -29 12 -54 15 -42 6 -49 3 -83 -26 -24 -21
-41 -48 -48 -75 -10 -37 -17 -44 -48 -54 -21 -6 -63 -11 -95 -11 -52 0 -60 3
-91 34 -31 31 -34 39 -34 92 1 103 55 184 124 184 42 0 56 -16 56 -62 0 -26 5
-41 16 -45 48 -18 64 91 20 136 -38 38 -116 36 -182 -4 -69 -43 -99 -105 -99
-205 l0 -75 -40 -27 c-47 -33 -51 -27 -36 58 15 79 14 84 -12 84 -19 0 -26 -8
-37 -42 -38 -128 -92 -164 -70 -47 6 30 13 62 16 72 4 13 0 17 -20 17 -31 0
-45 -24 -53 -90 -7 -58 -29 -83 -70 -78 -24 3 -28 8 -31 38 -2 20 6 77 18 128
11 50 20 106 20 122 0 38 -39 80 -73 80 -35 0 -88 -40 -114 -85 l-23 -40 0 42
c0 53 -38 88 -84 79 -37 -8 -84 -50 -102 -93 -8 -18 -16 -33 -18 -33 -2 0 -1
20 1 44 10 81 -53 109 -126 57 -33 -24 -56 -64 -47 -86 5 -15 12 -12 46 19 74
66 79 50 50 -148 -13 -85 -20 -161 -17 -170 8 -21 44 -20 55 2 6 9 13 42 17
72 13 98 54 211 90 247 35 35 42 38 64 24 19 -12 16 -62 -9 -206 -23 -128 -21
-155 15 -155 27 0 28 2 50 125 19 106 62 206 100 231 24 16 27 16 43 0 16 -15
15 -23 -6 -124 -12 -59 -22 -124 -22 -145 0 -73 69 -108 141 -72 27 14 31 14
45 0 23 -22 50 -18 73 11 20 25 21 25 21 6 0 -13 -18 -36 -46 -59 -87 -72
-118 -157 -69 -189 56 -37 111 17 142 139 16 62 23 74 58 99 22 16 48 35 57
43 15 13 21 11 46 -14 49 -50 140 -63 242 -37 46 12 55 12 67 0 20 -20 56 -17
85 5 24 19 24 19 36 0 14 -23 49 -25 79 -4 19 13 22 13 27 0 3 -8 14 -15 25
-15 14 0 24 12 35 48 20 60 54 115 66 107 5 -3 7 -12 4 -20 -8 -19 12 -52 36
-60 11 -4 33 0 49 8 28 14 30 14 36 -10 9 -39 50 -73 85 -73 55 0 120 47 120
87 0 30 -5 29 -47 -7 -54 -48 -91 -38 -103 30 -12 65 -4 80 40 80 51 0 70 8
70 31 0 15 -7 19 -31 19 l-30 0 20 26 c76 97 26 235 -54 148z m45 -54 c0 -35
-20 -80 -46 -101 -15 -12 -16 -12 -11 6 3 11 9 36 12 55 14 69 45 97 45 40z
m-120 -189 c0 -22 -19 -41 -42 -41 -19 0 -22 11 -12 46 4 16 11 20 30 16 14
-2 24 -11 24 -21z m-363 -3 c-3 -13 -9 -40 -12 -60 -8 -42 -27 -63 -50 -54
-28 10 -16 74 23 119 22 25 45 22 39 -5z m-632 -255 c-11 -48 -37 -93 -51 -93
-25 0 -15 48 17 85 37 42 43 44 34 8z"/>
<path d="M1086 2710 c-105 -17 -158 -68 -139 -134 7 -24 14 -31 33 -31 23 0
25 4 22 36 -2 23 2 42 12 52 16 15 102 34 112 25 2 -3 -7 -70 -21 -149 -30
-170 -31 -207 -9 -216 36 -14 47 10 66 137 9 68 23 149 29 178 l11 55 79 -6
c61 -4 81 -2 90 9 10 12 9 18 -3 30 -18 19 -195 27 -282 14z"/>
</g>
</svg>
